<svg width="100" height="30" xmlns="http://www.w3.org/2000/svg">
    <defs>
        <clipPath id="_clipPath_Xh4V6OuR0nIpjncOPf0gi3MHgiT7pNOj">
            <rect id="svg_1" height="21" width="68"/>
        </clipPath>
    </defs>
    <g>
        <title>background</title>
        <rect fill="none" id="canvas_background" height="32" width="102" y="-1" x="-1"/>
    </g>
    <g>
        <title>Layer 1</title>
        <g stroke="null" id="svg_2" clip-path="url(#_clipPath_Xh4V6OuR0nIpjncOPf0gi3MHgiT7pNOj)">
            <clipPath
                    transform="translate(13.128841400146484,35.75468444824219) scale(1,1.5725027322769165) translate(-13.128841400146484,-35.75468444824219) "
                    stroke="null" id="_clipPath_kU7E5JDxgtbp4dcKRToKh4ClgFWK37QV">
                <rect stroke="null" id="svg_3" fill="rgb(255,255,255)" height="30" width="101" y="1" x="0"/>
            </clipPath>
            <g stroke="null" id="svg_4" clip-path="url(#_clipPath_kU7E5JDxgtbp4dcKRToKh4ClgFWK37QV)">
                <g stroke="null" id="Group">
                    <clipPath stroke="null"
                              transform="translate(4.076921463012695,21.999990463256836) translate(7.076920032501221,-3.6923060417175293) translate(13.128841400146484,35.75468444824219) scale(1,1.5725027322769165) translate(-13.128841400146484,-35.75468444824219) "
                              id="_clipPath_ZwpzGPlNYc5CxxkHFLRp9NgZ2JnJSY7e">
                        <rect stroke="null" id="svg_5" fill="rgb(255,255,255)" height="35" width="110" y="19.307684"
                              x="11.153841"/>
                    </clipPath>
                    <g stroke="null" id="svg_6" clip-path="url(#_clipPath_ZwpzGPlNYc5CxxkHFLRp9NgZ2JnJSY7e)">
                        <g stroke="null" id="Group">
                            <g stroke="null" id="Group">
                                <path stroke="null" id="svg_7" fill="rgb(255,255,255)" fill-rule="evenodd"
                                      d="m25.598841,50.670751l-2.339,0l-1.345,-5.879588l-5.148,0l-1.317,5.879588l-2.321,0l5.037,-21.261809l2.395,0l5.038,21.261809l0,0zm-8.188,-8.864198l3.924,0l-1.262,-5.763223l0,0q-0.138,-0.580254 -0.382,-1.825676l0,0l0,0q-0.244,-1.245422 -0.336,-1.825676l0,0l0,0q-0.249,1.781646 -0.728,3.896662l0,0l-1.216,5.517912l0,0zm17.228,6.256988l0,2.60721l-7.727,0l0,-2.100864l5.148,-11.311012l-4.835,0l0,-2.60721l7.266,0l0,2.376052l-5.038,11.035824l5.186,0l0,0zm9.702,0l0,2.60721l-7.727,0l0,-2.100864l5.148,-11.311012l-4.835,0l0,-2.60721l7.267,0l0,2.376052l-5.038,11.035824l5.185,0l0,0zm10.817,2.60721l-1.547,0l-0.433,-2.231381l-0.074,0l0,0q-0.736,1.462428 -1.483,1.992361l0,0l0,0q-0.745,0.528361 -1.915,0.528361l0,0l0,0q-1.502,0 -2.345,-1.2753l0,0l0,0q-0.842,-1.273727 -0.842,-3.605749l0,0l0,0q0,-2.476692 1.17,-3.736266l0,0l0,0q1.17,-1.261147 3.564,-1.37594l0,0l1.759,-0.08806l0,-0.853869l0,0q0,-1.536335 -0.456,-2.294281l0,0l0,0q-0.456,-0.761091 -1.413,-0.761091l0,0l0,0q-0.783,0 -1.502,0.361676l0,0l0,0q-0.718,0.361676 -1.382,0.853869l0,0l-0.699,-2.432662l0,0q0.828,-0.680894 1.814,-1.034707l0,0l0,0q0.986,-0.355386 1.861,-0.355386l0,0l0,0q1.943,0 2.933,1.33191l0,0l0,0q0.99,1.333482 0.99,4.186002l0,0l0,10.790514l0,0zm-4.77,-2.317869l0,0l0,0q1.178,0 1.892,-1.036279l0,0l0,0q0.714,-1.034707 0.714,-2.904413l0,0l0,-1.38852l-1.308,0.086488l0,0q-1.529,0.086488 -2.224,0.803549l0,0l0,0q-0.695,0.717061 -0.695,2.193641l0,0l0,0q0,1.072447 0.405,1.65899l0,0l0,0q0.405,0.586544 1.216,0.586544zm13.644,-13.990557l0,0l0,0q0.654,0 1.077,0.14467l0,0l-0.211,3.171738l0,0q-0.461,-0.172975 -0.959,-0.172975l0,0l0,0q-1.298,0 -2.104,1.33191l0,0l0,0q-0.806,1.33191 -0.806,3.461079l0,0l0,8.372005l-2.164,0l0,-16.019085l1.695,0l0.285,2.824215l0.111,0l0,0q0.506,-1.43255 1.321,-2.273839l0,0l0,0q0.815,-0.839716 1.755,-0.839716zm11.572,16.308426l-1.548,0l-0.432,-2.231381l-0.074,0l0,0q-0.736,1.462428 -1.483,1.992361l0,0l0,0q-0.746,0.528361 -1.916,0.528361l0,0l0,0q-1.5,0 -2.343,-1.2753l0,0l0,0q-0.843,-1.273727 -0.843,-3.605749l0,0l0,0q0,-2.476692 1.169,-3.736266l0,0l0,0q1.17,-1.261147 3.565,-1.37594l0,0l1.759,-0.08806l0,-0.853869l0,0q0,-1.536335 -0.456,-2.294281l0,0l0,0q-0.455,-0.761091 -1.414,-0.761091l0,0l0,0q-0.782,0 -1.501,0.361676l0,0l0,0q-0.718,0.361676 -1.381,0.853869l0,0l-0.7,-2.432662l0,0q0.829,-0.680894 1.814,-1.034707l0,0l0,0q0.986,-0.355386 1.86,-0.355386l0,0l0,0q1.944,0 2.934,1.33191l0,0l0,0q0.99,1.333482 0.99,4.186002l0,0l0,10.790514l0,0zm-4.77,-2.317869l0,0l0,0q1.178,0 1.892,-1.036279l0,0l0,0q0.714,-1.034707 0.714,-2.904413l0,0l0,-1.38852l-1.309,0.086488l0,0q-1.528,0.086488 -2.223,0.803549l0,0l0,0q-0.696,0.717061 -0.696,2.193641l0,0l0,0q0,1.072447 0.405,1.65899l0,0l0,0q0.405,0.586544 1.217,0.586544z"/>
                            </g>
                        </g>
                    </g>
                </g>
            </g>
        </g>
        <text font-weight="bold" stroke="#f4f7f7"
              transform="matrix(0.6574881853279414,0,0,0.9080231788055635,-2.275449612276828,2.9190352884213926) "
              xml:space="preserve" text-anchor="start" font-family="Helvetica, Arial, sans-serif" font-size="24"
              id="svg_8" y="21.644897" x="7.513336" stroke-width="0" fill="#f9f7f7">智能分拣系统</text>
    </g>
</svg>